<svg width="27" height="16" viewBox="0 0 27 16" fill="none" xmlns="http://www.w3.org/2000/svg">
<g clip-path="url(#clip0_455_2179)">
<path d="M2.53235 2.53437C2.53235 1.95056 2.52935 1.39795 2.53325 0.84539C2.53684 0.33164 2.86225 0.00137281 3.37408 0.00116161C8.07519 -0.000633607 12.7762 0.000105601 17.4773 0.000422405C17.5288 0.000422405 17.5802 0.00485765 17.6648 0.00876489C17.6648 0.110617 17.6648 0.203863 17.6648 0.297109C17.6648 1.73123 17.6645 3.16534 17.665 4.59946C17.6652 5.24922 17.9626 5.54322 18.6195 5.54332C20.5439 5.54364 22.4683 5.53794 24.3926 5.54649C25.0535 5.54939 25.6521 5.77137 26.171 6.18015C26.7169 6.61021 26.9828 7.19799 26.9896 7.8808C27.0057 9.50833 26.9996 11.1361 26.9947 12.7638C26.9934 13.2285 26.6572 13.5582 26.1928 13.5662C25.7454 13.5738 25.2978 13.5678 24.8524 13.5678C24.3773 15.1181 23.3794 15.9956 21.736 15.9869C20.3959 15.9798 19.4368 15.1505 18.8704 13.5842C16.2095 13.5842 13.5428 13.5842 10.8804 13.5842C10.7805 13.8386 10.7006 14.1006 10.579 14.3414C10.024 15.4404 8.8356 16.0978 7.62885 15.9881C6.37296 15.8738 5.31076 15.0049 4.974 13.7941C4.92349 13.6124 4.85641 13.5575 4.67395 13.5637C4.26142 13.5777 3.8481 13.5691 3.43515 13.5679C2.84063 13.5661 2.53325 13.2543 2.53246 12.6516C2.53151 11.9136 2.53225 11.1755 2.53225 10.4132C2.43496 10.4086 2.35074 10.4013 2.26647 10.4011C1.76561 10.3996 1.26449 10.4101 0.764001 10.3962C0.332486 10.3843 0.00190186 10.0281 0.002271 9.60733C0.00269286 9.18677 0.334912 8.84262 0.76611 8.81828C0.844947 8.81384 0.924257 8.8168 1.0033 8.8168C3.28797 8.81675 5.57258 8.81638 7.85724 8.81706C8.21741 8.81717 8.48867 8.666 8.63558 8.3351C8.76921 8.03403 8.71384 7.74732 8.49869 7.50011C8.31902 7.29366 8.08109 7.23077 7.81215 7.23114C5.52754 7.23436 3.24288 7.23331 0.95827 7.23209C0.844683 7.23204 0.727457 7.23431 0.618247 7.2087C0.217791 7.11477 -0.0452943 6.73566 0.00648965 6.3442C0.0603829 5.93658 0.393445 5.65125 0.835455 5.6504C2.3644 5.6475 3.89334 5.64961 5.42229 5.64839C5.52717 5.64829 5.63533 5.65051 5.73642 5.62738C6.1374 5.53551 6.39321 5.17139 6.35218 4.76552C6.31047 4.35267 6.05867 4.12431 5.59826 4.12182C4.27144 4.11464 2.94457 4.12267 1.61775 4.11623C1.00784 4.11327 0.619143 3.5341 0.86546 3.00361C1.00794 2.69674 1.26075 2.5405 1.59945 2.53554C1.8975 2.53094 2.19555 2.53437 2.53235 2.53437ZM6.4344 12.9635C6.43561 13.7658 7.09113 14.4133 7.9008 14.4119C8.68584 14.4106 9.33461 13.7522 9.33345 12.958C9.33229 12.1644 8.68172 11.5092 7.89526 11.5097C7.08686 11.5101 6.43318 12.1607 6.4344 12.9635ZM20.407 12.9541C20.4045 13.7581 21.055 14.4089 21.864 14.4118C22.6503 14.4147 23.3029 13.7609 23.3059 12.9673C23.3089 12.173 22.6624 11.5134 21.8771 11.5096C21.0679 11.5058 20.4095 12.1527 20.407 12.9541Z" fill="#001F1C"/>
<path d="M23.5552 3.94764C22.1254 3.94764 20.6999 3.94764 19.2605 3.94764C19.2605 2.69104 19.2605 1.4461 19.2605 0.201172C20.7058 0.246633 22.9287 2.18082 23.5552 3.94764Z" fill="#001F1C"/>
</g>
<defs>
<clipPath id="clip0_455_2179">
<rect width="27" height="16" fill="white"/>
</clipPath>
</defs>
</svg>
