<svg width="13" height="14" viewBox="0 0 13 14" fill="none" xmlns="http://www.w3.org/2000/svg">
<g clip-path="url(#clip0_455_2164)">
<path d="M0 7.63033C0 7.37655 0 7.12277 0 6.86898C0.00756534 6.83253 0.0192572 6.79608 0.0220083 6.75894C0.085282 5.85179 0.324622 4.99347 0.763411 4.19911C1.77442 2.36898 3.31018 1.24794 5.36726 0.852476C5.61486 0.805021 5.86795 0.7837 6.11829 0.75C6.37208 0.75 6.62586 0.75 6.87964 0.75C6.91197 0.756878 6.94429 0.768569 6.9773 0.77132C7.88446 0.833219 8.74622 1.06706 9.53852 1.51066C11.6747 2.70667 12.8391 4.53404 12.9869 6.97902C13.0646 8.26032 12.7586 9.47008 12.0832 10.5636C10.8659 12.5361 9.08666 13.6028 6.77166 13.739C5.59904 13.8078 4.48143 13.5526 3.45048 12.9859C1.61761 11.9776 0.497249 10.4391 0.101788 8.38136C0.0550206 8.13308 0.0337001 7.88067 0 7.63033ZM7.95598 10.3903C7.76135 10.4323 7.58597 10.4845 7.40784 10.5052C6.90234 10.5636 6.68088 10.3394 6.77304 9.84285C6.84457 9.4577 6.95048 9.07875 7.04539 8.69773C7.17675 8.17022 7.37552 7.66059 7.40647 7.10763C7.43329 6.63652 7.21733 6.2445 6.78542 6.06362C6.50069 5.94464 6.20151 5.9295 5.90028 5.96733C5.48487 6.01891 5.10316 6.18398 4.71733 6.33184C4.69188 6.34216 4.65681 6.36142 4.65131 6.38274C4.61417 6.51754 4.58459 6.6544 4.54814 6.80846C4.64443 6.77751 4.71664 6.75481 4.78886 6.73143C4.99725 6.66265 5.20977 6.64409 5.42641 6.69017C5.59697 6.72662 5.70014 6.81052 5.70839 6.98521C5.71802 7.18948 5.71527 7.40199 5.66988 7.60007C5.56809 8.04436 5.43879 8.48177 5.31499 8.92125C5.20358 9.31602 5.09147 9.71011 5.0784 10.1241C5.06396 10.5719 5.29161 10.9343 5.70083 11.1063C6.0392 11.2486 6.39821 11.2741 6.74622 11.1915C7.10591 11.1069 7.45117 10.9618 7.80193 10.8408C7.826 10.8325 7.85488 10.8064 7.86107 10.783C7.89615 10.653 7.92503 10.5217 7.95598 10.3903ZM7.08941 3.239C6.96974 3.26238 6.84732 3.27476 6.73177 3.31121C6.15199 3.49553 5.89615 4.16747 6.22834 4.66128C6.47043 5.02166 6.82944 5.14546 7.25447 5.09182C7.75378 5.02923 8.12448 4.55055 8.0564 4.05399C7.9945 3.60007 7.59353 3.26651 7.08941 3.239Z" fill="black"/>
</g>
<defs>
<clipPath id="clip0_455_2164">
<rect width="12.9993" height="13" fill="white" transform="translate(0 0.75)"/>
</clipPath>
</defs>
</svg>
