<svg width="20" height="20" viewBox="0 0 20 20" fill="none" xmlns="http://www.w3.org/2000/svg">
<g clip-path="url(#clip0_455_2123)">
<path d="M19.9238 10.3777C19.7495 9.91532 19.3331 9.64157 18.7983 9.64038C18.4049 9.63919 18.0115 9.64038 17.5974 9.64038V9.3577C17.5974 6.87428 17.598 4.39086 17.5974 1.90685C17.5969 0.746966 16.8722 0.000690478 15.7467 0.000690478C11.9238 9.53617e-05 8.10101 9.53617e-05 4.27759 0.000690478C3.13712 0.000690478 2.4165 0.7428 2.4165 1.91756C2.41592 4.39384 2.41592 6.87011 2.41592 9.34579V9.64038C1.99321 9.64038 1.59925 9.63919 1.20471 9.64038C0.67445 9.64157 0.260937 9.91532 0.0826486 10.3819C-0.10024 10.8604 0.0234109 11.3507 0.423696 11.734C0.851012 12.1428 1.2789 12.5505 1.70622 12.9593C3.88996 15.05 6.0737 17.1406 8.25802 19.2307C9.29956 20.2275 10.654 20.2644 11.6725 19.292C14.3187 16.7663 16.9539 14.2287 19.5914 11.6929C19.9773 11.3221 20.094 10.83 19.9238 10.3777ZM12.9763 12.4219C12.5352 13.4193 11.7064 13.9894 10.459 14.1215C10.459 14.2626 10.4613 14.4078 10.4584 14.553C10.4464 15.1118 10.0558 15.5302 9.54456 15.5338C9.03328 15.5367 8.63299 15.1184 8.61977 14.5643C8.61632 14.4262 8.61919 14.2882 8.61919 14.1061C8.45873 14.1061 8.3092 14.1102 8.16082 14.1049C7.64091 14.0882 7.2435 13.68 7.23947 13.1622C7.23545 12.6296 7.63573 12.21 8.17232 12.2041C8.90043 12.1963 9.62911 12.2041 10.3572 12.2017C11.0065 12.1993 11.374 11.8202 11.3792 11.1531C11.3798 11.0341 11.3815 10.9151 11.3786 10.796C11.3648 10.2259 10.9824 9.84087 10.4291 9.82004C9.91379 9.8004 9.38353 9.83671 8.8872 9.72363C7.55234 9.41834 6.67183 8.11801 6.78628 6.72246C6.90015 5.34299 7.96355 4.24797 9.31739 4.11705C9.3818 4.1105 9.44679 4.10634 9.53996 4.0986C9.53996 3.92959 9.53479 3.77307 9.54054 3.61715C9.56067 3.08274 9.96383 2.67746 10.4671 2.68163C10.9559 2.68579 11.3539 3.0869 11.3769 3.60525C11.3838 3.76176 11.3781 3.91887 11.3781 4.10931C11.5316 4.10931 11.6627 4.10753 11.7933 4.10931C12.3512 4.11824 12.7612 4.52589 12.7583 5.06685C12.7555 5.60722 12.3448 6.00892 11.7824 6.01249C11.0732 6.01666 10.3641 6.01249 9.65499 6.01368C9.03961 6.01487 8.62437 6.39456 8.61977 6.95694C8.61517 7.52885 9.03731 7.90972 9.66879 7.91924C10.0892 7.92579 10.5154 7.90913 10.9289 7.9734C12.1993 8.17038 13.1667 9.31777 13.2156 10.6437C13.238 11.2507 13.2282 11.8524 12.9763 12.4219Z" fill="#001F1C"/>
</g>
<defs>
<clipPath id="clip0_455_2123">
<rect width="20" height="20" fill="white"/>
</clipPath>
</defs>
</svg>
