<svg width="45" height="21" viewBox="0 0 45 21" fill="none" xmlns="http://www.w3.org/2000/svg">
<g clip-path="url(#clip0_455_2157)">
<path d="M44.4444 3.71296C44.4444 2.07652 43.1179 0.75 41.4815 0.75H2.96296C1.32652 0.75 0 2.07652 0 3.71296V17.787C0 19.4235 1.32652 20.75 2.96296 20.75H41.4815C43.1179 20.75 44.4444 19.4235 44.4444 17.787V3.71296Z" fill="#FFFFFA"/>
<path d="M17.3396 7.6427L18.3592 15.9381H28.3292L27.3095 7.6427H17.3396Z" fill="#AA8FFF"/>
<path d="M20.1838 4.4773C20.8196 5.07508 20.9069 6.01538 20.3786 6.57745C19.8503 7.13952 18.9064 7.11049 18.2706 6.51271C17.6347 5.91493 17.5475 4.97464 18.0758 4.41256C18.6041 3.85049 19.5479 3.87953 20.1838 4.4773Z" fill="#1A0826"/>
<path d="M38.7778 10.6297C38.5484 8.76406 37.0829 7.63621 35.0928 7.64273H28.4636L29.4832 15.9381H32.4667L32.2635 14.279H35.4207C37.9024 14.279 39.0401 12.7315 38.7778 10.6297ZM35.0961 11.9544L31.9749 11.9577L31.729 9.96747L34.8666 9.97073C35.6042 9.98051 35.9813 10.3937 36.0436 10.9642C36.0829 11.3282 35.9156 11.9544 35.0961 11.9544Z" fill="#1A0826"/>
<path d="M6.95654 13.6201L7.24172 15.9382H17.2019L16.874 13.2856H12.2316L12.189 12.9545L16.4674 9.96754L16.1822 7.64294H6.22217L6.54676 10.2988H11.1991L11.2417 10.6299L6.95654 13.6201Z" fill="#1A0826"/>
</g>
<defs>
<clipPath id="clip0_455_2157">
<rect width="44.4444" height="20" fill="white" transform="translate(0 0.75)"/>
</clipPath>
</defs>
</svg>
